<?xml version="1.0" encoding="UTF-8" standalone="no"?>
<!-- Created with Inkscape (http://www.inkscape.org/) -->

<svg
   xmlns:dc="http://purl.org/dc/elements/1.1/"
   xmlns:cc="http://creativecommons.org/ns#"
   xmlns:rdf="http://www.w3.org/1999/02/22-rdf-syntax-ns#"
   xmlns:svg="http://www.w3.org/2000/svg"
   xmlns="http://www.w3.org/2000/svg"
   xmlns:sodipodi="http://sodipodi.sourceforge.net/DTD/sodipodi-0.dtd"
   xmlns:inkscape="http://www.inkscape.org/namespaces/inkscape"
   height="184.8325mm"
   width="220.95335mm"
   viewBox="0 0 782.90559 654.91831"
   id="svg2"
   version="1.1"
   inkscape:version="0.92.5 (2060ec1f9f, 2020-04-08)"
   sodipodi:docname="moisture-meter.svg"
   inkscape:export-filename="/home/algot/Documents/runeman.org/clipart/gauge-voltage-analog-f.png"
   inkscape:export-xdpi="312.34769"
   inkscape:export-ydpi="312.34769">
  <title
     id="title3261">Gauge</title>
  <defs
     id="defs8" />
  <sodipodi:namedview
     pagecolor="#ffffff"
     bordercolor="#666666"
     borderopacity="1"
     objecttolerance="10"
     gridtolerance="10"
     guidetolerance="10"
     inkscape:pageopacity="0"
     inkscape:pageshadow="2"
     inkscape:window-width="1908"
     inkscape:window-height="1025"
     id="namedview6"
     showgrid="false"
     inkscape:zoom="0.6006148"
     inkscape:cx="700.7758"
     inkscape:cy="189.17382"
     inkscape:window-x="0"
     inkscape:window-y="24"
     inkscape:window-maximized="0"
     inkscape:current-layer="svg2"
     fit-margin-top="0"
     fit-margin-left="0"
     fit-margin-right="0"
     fit-margin-bottom="0">
    <inkscape:grid
       type="xygrid"
       id="grid3142"
       originx="650.49199"
       originy="-54.260736" />
  </sodipodi:namedview>
  <metadata
     id="metadata4">
    <rdf:RDF>
      <cc:Work
         rdf:about="">
        <dc:format>image/svg+xml</dc:format>
        <dc:type
           rdf:resource="http://purl.org/dc/dcmitype/StillImage" />
        <dc:title>Gauge</dc:title>
        <dc:date>2017-03-09</dc:date>
        <dc:creator>
          <cc:Agent>
            <dc:title>Algot Runeman</dc:title>
          </cc:Agent>
        </dc:creator>
        <dc:rights>
          <cc:Agent>
            <dc:title>Algot Runeman</dc:title>
          </cc:Agent>
        </dc:rights>
        <dc:publisher>
          <cc:Agent>
            <dc:title>runeman.org</dc:title>
          </cc:Agent>
        </dc:publisher>
        <dc:identifier>gauge-voltage-analog.svg</dc:identifier>
        <cc:license
           rdf:resource="http://creativecommons.org/publicdomain/zero/1.0/" />
      </cc:Work>
      <cc:License
         rdf:about="http://creativecommons.org/publicdomain/zero/1.0/">
        <cc:permits
           rdf:resource="http://creativecommons.org/ns#Reproduction" />
        <cc:permits
           rdf:resource="http://creativecommons.org/ns#Distribution" />
        <cc:permits
           rdf:resource="http://creativecommons.org/ns#DerivativeWorks" />
      </cc:License>
    </rdf:RDF>
  </metadata>
  <path
     inkscape:connector-curvature="0"
     id="path3188"
     d="M 219.55279,1.5674094 V 322.79493 H 562.18651 V 1.5674094 Z"
     style="fill:#000000;fill-rule:evenodd;stroke:#000000;stroke-width:3.13481879px;stroke-linecap:butt;stroke-linejoin:miter;stroke-opacity:1" />
  <path
     style="fill:#e6e6e6;fill-rule:evenodd;stroke:#000000;stroke-width:2.87002802px;stroke-linecap:butt;stroke-linejoin:miter;stroke-opacity:1"
     d="M 235.61253,15.603129 V 310.78323 H 548.15079 V 15.603129 Z"
     id="path3144"
     inkscape:connector-curvature="0" />
  <path
     style="fill:#ffffff;fill-rule:evenodd;stroke:#000000;stroke-width:1.06737363px;stroke-linecap:butt;stroke-linejoin:miter;stroke-opacity:1"
     d="M 250.90334,40.123219 V 290.82656 H 530.83596 V 40.123219 Z"
     id="path3146"
     inkscape:connector-curvature="0" />
  <path
     style="fill:none;fill-rule:evenodd;stroke:#000000;stroke-width:3;stroke-linecap:butt;stroke-linejoin:miter;stroke-opacity:1"
     d="M 390.86965,90.860249 V 130.86025"
     id="path3150"
     inkscape:connector-curvature="0" />
  <path
     style="fill:none;fill-rule:evenodd;stroke:#000000;stroke-width:3;stroke-linecap:butt;stroke-linejoin:miter;stroke-opacity:1"
     d="M 436.04603,97.541729 425.69327,136.17877"
     id="path3152"
     inkscape:connector-curvature="0" />
  <path
     inkscape:connector-curvature="0"
     id="path3154"
     d="m 347.69327,97.541729 10.35276,38.637041"
     style="fill:none;fill-rule:evenodd;stroke:#000000;stroke-width:3;stroke-linecap:butt;stroke-linejoin:miter;stroke-opacity:1" />
  <path
     style="fill:none;fill-rule:evenodd;stroke:#000000;stroke-width:3;stroke-linecap:butt;stroke-linejoin:miter;stroke-opacity:1"
     d="m 302.86965,109.53974 20,34.64102"
     id="path3156"
     inkscape:connector-curvature="0" />
  <path
     inkscape:connector-curvature="0"
     id="path3158"
     d="m 484.86965,109.53974 -20,34.64102"
     style="fill:none;fill-rule:evenodd;stroke:#000000;stroke-width:3;stroke-linecap:butt;stroke-linejoin:miter;stroke-opacity:1" />
  <path
     inkscape:connector-curvature="0"
     id="path3160"
     d="m 253.54914,142.86025 34.64102,20"
     style="fill:none;fill-rule:evenodd;stroke:#000000;stroke-width:3;stroke-linecap:butt;stroke-linejoin:miter;stroke-opacity:1" />
  <path
     style="fill:none;fill-rule:evenodd;stroke:#000000;stroke-width:3;stroke-linecap:butt;stroke-linejoin:miter;stroke-opacity:1"
     d="m 530.19016,142.86025 -34.64102,20"
     id="path3162"
     inkscape:connector-curvature="0" />
  <path
     style="fill:#000000;fill-rule:evenodd;stroke:#000000;stroke-width:1px;stroke-linecap:butt;stroke-linejoin:miter;stroke-opacity:1"
     d="m 444.84044,125.46907 -64.83723,87.20169 -0.73527,25.04913 21.4585,-12.94344 z"
     id="path3164"
     inkscape:connector-curvature="0"
     sodipodi:nodetypes="ccccc"
     inkscape:transform-center-y="-36.264927"
     inkscape:transform-center-x="-21.18454" />
  <g
     style="font-style:normal;font-weight:normal;font-size:30px;line-height:125%;font-family:sans-serif;text-align:center;letter-spacing:0px;word-spacing:0px;text-anchor:middle;fill:#000000;fill-opacity:1;stroke:none;stroke-width:1px;stroke-linecap:butt;stroke-linejoin:miter;stroke-opacity:1"
     id="text3190"
     transform="translate(217.98538)">
    <path
       d="m 59.275742,96.637955 h 7.895507 v 2.402343 h -7.895507 z"
       id="path3185"
       inkscape:connector-curvature="0" />
    <path
       d="m 71.888046,84.186783 h 11.616211 v 2.490234 h -8.90625 v 5.361328 q 0.644531,-0.219726 1.289063,-0.322265 0.644531,-0.117188 1.289062,-0.117188 3.66211,0 5.800781,2.006836 2.138672,2.006836 2.138672,5.43457 0,3.530272 -2.197265,5.493162 -2.197266,1.94824 -6.196289,1.94824 -1.376953,0 -2.8125,-0.23437 -1.420899,-0.23438 -2.944336,-0.70313 v -2.97363 q 1.318359,0.71778 2.724609,1.06934 1.40625,0.35156 2.973633,0.35156 2.53418,0 4.013672,-1.33301 1.479492,-1.33301 1.479492,-3.618162 0,-2.285156 -1.479492,-3.618164 -1.479492,-1.333007 -4.013672,-1.333007 -1.186524,0 -2.373047,0.263671 -1.171875,0.263672 -2.402344,0.820313 z"
       id="path3187"
       inkscape:connector-curvature="0" />
  </g>
  <g
     style="font-style:normal;font-weight:normal;font-size:30px;line-height:125%;font-family:sans-serif;text-align:center;letter-spacing:0px;word-spacing:0px;text-anchor:middle;fill:#000000;fill-opacity:1;stroke:none;stroke-width:1px;stroke-linecap:butt;stroke-linejoin:miter;stroke-opacity:1"
     id="text3194"
     transform="translate(217.98538)">
    <path
       d="m 260.4613,87.248306 v 8.15918 h 8.15918 v 2.490234 h -8.15918 v 8.15918 h -2.46093 v -8.15918 h -8.15918 v -2.490234 h 8.15918 v -8.15918 z"
       id="path3177"
       inkscape:connector-curvature="0" />
    <path
       d="m 275.0365,84.186783 h 11.61621 v 2.490234 h -8.90625 v 5.361328 q 0.64453,-0.219726 1.28906,-0.322265 0.64453,-0.117188 1.28906,-0.117188 3.66211,0 5.80079,2.006836 2.13867,2.006836 2.13867,5.43457 0,3.530272 -2.19727,5.493162 -2.19726,1.94824 -6.19629,1.94824 -1.37695,0 -2.8125,-0.23437 -1.4209,-0.23438 -2.94433,-0.70313 v -2.97363 q 1.31836,0.71778 2.72461,1.06934 1.40625,0.35156 2.97363,0.35156 2.53418,0 4.01367,-1.33301 1.47949,-1.33301 1.47949,-3.618162 0,-2.285156 -1.47949,-3.618164 -1.47949,-1.333007 -4.01367,-1.333007 -1.18652,0 -2.37305,0.263671 -1.17187,0.263672 -2.40234,0.820313 z"
       id="path3179"
       inkscape:connector-curvature="0" />
  </g>
  <g
     style="font-style:normal;font-weight:normal;font-size:45px;line-height:125%;font-family:sans-serif;text-align:center;letter-spacing:0px;word-spacing:0px;text-anchor:middle;fill:#000000;fill-opacity:1;stroke:none;stroke-width:1px;stroke-linecap:butt;stroke-linejoin:miter;stroke-opacity:1"
     id="text3221"
     transform="translate(217.98538)">
    <path
       d="m 172.88426,51.693741 q -3.42773,0 -5.16357,3.383789 -1.71387,3.361816 -1.71387,10.129394 0,6.745606 1.71387,10.129395 1.73584,3.361816 5.16357,3.361816 3.44971,0 5.16358,-3.361816 1.73584,-3.383789 1.73584,-10.129395 0,-6.767578 -1.73584,-10.129394 -1.71387,-3.383789 -5.16358,-3.383789 z m 0,-3.515625 q 5.51514,0 8.41553,4.372558 2.92236,4.350586 2.92236,12.65625 0,8.283692 -2.92236,12.65625 -2.90039,4.350586 -8.41553,4.350586 -5.51513,0 -8.4375,-4.350586 -2.90039,-4.372558 -2.90039,-12.65625 0,-8.305664 2.90039,-12.65625 2.92237,-4.372558 8.4375,-4.372558 z"
       id="path3182"
       inkscape:connector-curvature="0" />
  </g>
  <rect
     style="fill:#000000;fill-opacity:1;stroke:#000000;stroke-width:6.37795305;stroke-miterlimit:4;stroke-dasharray:none;stroke-dashoffset:0;stroke-opacity:1"
     id="rect842"
     width="43.597073"
     height="326.15027"
     x="220.85773"
     y="325.5791" />
  <rect
     style="fill:#000000;fill-opacity:1;stroke:#000000;stroke-width:6.37795305;stroke-miterlimit:4;stroke-dasharray:none;stroke-dashoffset:0;stroke-opacity:1"
     id="rect842-9"
     width="43.597069"
     height="326.15024"
     x="518.98273"
     y="325.5791" />
  <path
     style="fill:none;stroke:#000000;stroke-width:4.6875;stroke-linecap:butt;stroke-linejoin:miter;stroke-miterlimit:4;stroke-dasharray:none;stroke-opacity:1"
     d="M 0,411.55649 H 209.15559"
     id="path859"
     inkscape:connector-curvature="0" />
  <path
     style="fill:none;stroke:#000000;stroke-width:4.68749952;stroke-linecap:butt;stroke-linejoin:miter;stroke-miterlimit:4;stroke-dasharray:none;stroke-opacity:1"
     d="M 573.75,411.55649 H 782.90558"
     id="path859-2"
     inkscape:connector-curvature="0" />
  <path
     style="fill:none;stroke:#000000;stroke-width:4.68749952;stroke-linecap:butt;stroke-linejoin:miter;stroke-miterlimit:4;stroke-dasharray:none;stroke-opacity:1"
     d="M 286.875,411.55649 H 496.03058"
     id="path859-8"
     inkscape:connector-curvature="0" />
  <path
     style="opacity:1;vector-effect:none;fill:none;fill-opacity:1;stroke:#000000;stroke-width:4.6875;stroke-linecap:butt;stroke-linejoin:miter;stroke-miterlimit:4;stroke-dasharray:none;stroke-dashoffset:0;stroke-opacity:1"
     d="m 46.35638,490.43282 h 67.32713"
     id="path859-4"
     inkscape:connector-curvature="0" />
  <path
     style="opacity:1;vector-effect:none;fill:none;fill-opacity:1;stroke:#000000;stroke-width:4.6875;stroke-linecap:butt;stroke-linejoin:miter;stroke-miterlimit:4;stroke-dasharray:none;stroke-dashoffset:0;stroke-opacity:1"
     d="m 102.60638,546.68282 h 67.32713"
     id="path859-4-0"
     inkscape:connector-curvature="0" />
  <path
     style="fill:none;stroke:#000000;stroke-width:4.68749952;stroke-linecap:butt;stroke-linejoin:miter;stroke-miterlimit:4;stroke-dasharray:none;stroke-opacity:1"
     d="m 336.98138,490.43282 h 67.32713"
     id="path859-4-3"
     inkscape:connector-curvature="0" />
  <path
     style="fill:none;stroke:#000000;stroke-width:4.68749905;stroke-linecap:butt;stroke-linejoin:miter;stroke-miterlimit:4;stroke-dasharray:none;stroke-opacity:1"
     d="m 393.23138,546.68282 h 67.32713"
     id="path859-4-0-0"
     inkscape:connector-curvature="0" />
  <path
     style="fill:none;stroke:#000000;stroke-width:4.68749952;stroke-linecap:butt;stroke-linejoin:miter;stroke-miterlimit:4;stroke-dasharray:none;stroke-opacity:1"
     d="m 614.48138,490.43282 h 67.32713"
     id="path859-4-06"
     inkscape:connector-curvature="0" />
  <path
     style="fill:none;stroke:#000000;stroke-width:4.68749905;stroke-linecap:butt;stroke-linejoin:miter;stroke-miterlimit:4;stroke-dasharray:none;stroke-opacity:1"
     d="m 670.73138,546.68282 h 67.32713"
     id="path859-4-0-4"
     inkscape:connector-curvature="0" />
</svg>
